<svg width="60" height="60" viewBox="0 0 60 60" fill="none" xmlns="http://www.w3.org/2000/svg">
<g id="Group">
<path id="Vector" d="M36.1825 34.3456C37.5739 34.3485 38.9522 34.0774 40.2388 33.5476C41.5254 33.0179 42.6951 32.2399 43.681 31.2582C44.6669 30.2764 45.4498 29.11 45.985 27.8257C46.5202 26.5413 46.7972 25.1642 46.8001 23.7728C46.7972 22.3814 46.5202 21.0042 45.985 19.7199C45.4498 18.4355 44.6669 17.2692 43.681 16.2874C42.6951 15.3056 41.5254 14.5276 40.2388 13.9979C38.9522 13.4682 37.5739 13.197 36.1825 13.2C33.373 13.1948 30.6764 14.3057 28.6858 16.2884C26.6952 18.2711 25.5736 20.9632 25.5677 23.7728C25.5677 26.4776 26.7997 28.446 26.7997 28.446L13.9673 41.228C13.3905 41.802 12.5841 43.2944 13.9673 44.672L15.4485 46.1448C16.0225 46.6376 17.4729 47.3264 18.6573 46.1448L20.3849 44.4256C22.1125 46.1448 24.0893 45.162 24.8285 44.1792C26.0633 42.4572 24.5821 40.7352 24.5821 40.7352L25.0777 40.2452C27.4465 42.6056 29.5213 41.228 30.2605 40.2452C31.4953 38.5232 30.2605 36.8012 30.2605 36.8012C29.7677 35.8184 28.7793 35.8184 30.0141 34.5892L31.4981 33.1136C32.6797 34.0964 35.1129 34.3456 36.1825 34.3456Z" stroke="white" stroke-width="4" stroke-linejoin="round"/>
<path id="Vector_2" d="M2 30C2 16.8008 2 10.2012 6.0992 6.0992C10.204 2 16.8008 2 30 2C43.1992 2 49.7988 2 53.898 6.0992C58 10.204 58 16.8008 58 30C58 43.1992 58 49.7988 53.898 53.898C49.8016 58 43.1992 58 30 58C16.8008 58 10.2012 58 6.0992 53.898C2 49.8016 2 43.1992 2 30Z" stroke="white" stroke-width="4"/>
</g>
</svg>
