<svg width="51" height="56" viewBox="0 0 51 56" fill="none" xmlns="http://www.w3.org/2000/svg">
<path id="Vector" fill-rule="evenodd" clip-rule="evenodd" d="M30.5287 4.098H17.7111C17.306 6.06661 16.3256 7.87369 14.892 9.29436C13.4584 10.715 11.6349 11.6866 9.64841 12.088V13.8636C11.6349 14.2651 13.4584 15.2366 14.892 16.6573C16.3256 18.078 17.306 19.885 17.7111 21.8536H30.5287C30.9339 19.885 31.9142 18.078 33.3478 16.6573C34.7814 15.2366 36.6049 14.2651 38.5914 13.8636V12.088C36.6049 11.6866 34.7814 10.715 33.3478 9.29436C31.9142 7.87369 30.9339 6.06661 30.5287 4.098ZM32.1964 0.00874129C31.4393 0.00145692 30.6326 -0.00127477 29.7762 0.000546321H18.4636C17.6073 0.000546321 16.8015 0.00327802 16.0462 0.00874129C15.8955 -0.000799413 15.7443 0.0019415 15.5941 0.0169363C14.3482 0.0387894 13.2429 0.0906901 12.2836 0.219077C10.5525 0.448535 8.98961 0.956619 7.73542 2.19951C6.47846 3.44514 5.96576 4.99398 5.73421 6.70672C5.60466 7.66006 5.55228 8.75544 5.53023 9.99014C5.51525 10.1381 5.51249 10.287 5.52196 10.4354C5.51461 11.1875 5.51186 11.987 5.51369 12.8338V13.1179C5.51369 13.9647 5.51645 14.7641 5.52196 15.5162C5.51249 15.6646 5.51525 15.8136 5.53023 15.9615C5.55228 17.1989 5.60466 18.2916 5.73421 19.2422C5.96576 20.9577 6.47846 22.5065 7.73542 23.7494C8.98961 24.995 10.5525 25.5031 12.2836 25.7326C13.2429 25.861 14.3482 25.9129 15.5941 25.9347C15.7443 25.9497 15.8955 25.9524 16.0462 25.9429C16.8015 25.9502 17.6073 25.9529 18.4636 25.9511H29.7762C30.6307 25.9511 31.4375 25.9484 32.1964 25.9429C32.3462 25.9523 32.4964 25.9496 32.6457 25.9347C33.8944 25.9129 34.9998 25.861 35.9562 25.7326C37.6873 25.5031 39.2502 24.995 40.5044 23.7494C41.7614 22.5065 42.2741 20.9577 42.5056 19.2422C42.634 18.1531 42.7021 17.0579 42.7096 15.9615C42.7246 15.8136 42.7274 15.6646 42.7179 15.5162C42.7252 14.7641 42.728 13.9647 42.7262 13.1179V12.8338C42.7262 11.987 42.7234 11.1875 42.7179 10.4354C42.7274 10.287 42.7246 10.1381 42.7096 9.99014C42.7021 8.89371 42.634 7.79851 42.5056 6.70945C42.2741 4.99398 41.7614 3.44514 40.5072 2.20225C39.2502 0.956619 37.6873 0.448535 35.959 0.219077C34.8591 0.0917909 33.753 0.0243097 32.6457 0.0169363C32.4964 0.00209082 32.3462 -0.000649982 32.1964 0.00874129ZM34.8537 4.21819C35.1662 5.03517 35.6502 5.77709 36.2737 6.3949C36.8971 7.01271 37.6458 7.49235 38.4702 7.8021C38.4527 7.61959 38.4316 7.43744 38.4068 7.25578C38.2386 5.99376 37.9409 5.45289 37.5798 5.09778C37.2187 4.74267 36.6784 4.45038 35.4077 4.27829C35.2244 4.2546 35.0406 4.23456 34.8564 4.21819M38.4729 18.1495C37.6485 18.4593 36.8998 18.9389 36.2764 19.5567C35.653 20.1746 35.169 20.9165 34.8564 21.7335C35.0494 21.7152 35.2331 21.6952 35.4077 21.6734C36.6812 21.5013 37.227 21.209 37.5853 20.8539C37.9437 20.4988 38.2414 19.9579 38.4123 18.6959C38.4343 18.5229 38.4545 18.3408 38.4729 18.1495ZM13.389 21.7335C13.0764 20.9165 12.5924 20.1746 11.969 19.5567C11.3455 18.9389 10.5969 18.4593 9.77245 18.1495C9.79083 18.3408 9.81196 18.5229 9.83585 18.6959C10.0068 19.9579 10.3017 20.4988 10.6628 20.8539C11.0239 21.209 11.5642 21.5013 12.8349 21.6734C13.0113 21.6952 13.196 21.7152 13.389 21.7335ZM9.77245 7.8021C10.5969 7.49235 11.3455 7.01271 11.969 6.3949C12.5924 5.77709 13.0764 5.03517 13.389 4.21819C13.196 4.2364 13.0122 4.25735 12.8377 4.28102C11.5642 4.45038 11.0184 4.74267 10.66 5.10051C10.3017 5.45836 10.0068 5.99376 9.8331 7.25304L9.77245 7.8021ZM24.1199 12.2929C23.9372 12.2929 23.7619 12.3649 23.6326 12.4929C23.5034 12.621 23.4308 12.7947 23.4308 12.9758C23.4308 13.1569 23.5034 13.3306 23.6326 13.4587C23.7619 13.5868 23.9372 13.6587 24.1199 13.6587C24.3027 13.6587 24.478 13.5868 24.6072 13.4587C24.7364 13.3306 24.809 13.1569 24.809 12.9758C24.809 12.7947 24.7364 12.621 24.6072 12.4929C24.478 12.3649 24.3027 12.2929 24.1199 12.2929ZM19.2961 12.9758C19.2961 11.708 19.8043 10.4921 20.709 9.5956C21.6136 8.6991 22.8406 8.19546 24.1199 8.19546C25.3993 8.19546 26.6263 8.6991 27.5309 9.5956C28.4355 10.4921 28.9438 11.708 28.9438 12.9758C28.9438 14.2437 28.4355 15.4596 27.5309 16.3561C26.6263 17.2525 25.3993 17.7562 24.1199 17.7562C22.8406 17.7562 21.6136 17.2525 20.709 16.3561C19.8043 15.4596 19.2961 14.2437 19.2961 12.9758ZM14.9794 33.3211C20.123 32.3349 25.6277 32.5562 30.0849 35.1895C30.7079 35.5583 31.2978 36.0199 31.8077 36.5881C32.8442 37.7436 33.3789 39.175 33.4037 40.6118C33.9293 40.2731 34.4595 39.9025 34.9942 39.5L39.978 35.7713C41.2265 34.8633 42.7348 34.3736 44.2836 34.3736C45.8323 34.3736 47.3406 34.8633 48.5892 35.7713C50.8909 37.4923 51.8115 40.5872 50.1604 43.2096C48.9889 45.0698 47.2247 47.6458 45.4275 49.2957C43.6082 50.962 41.0254 52.366 39.0711 53.3003C36.695 54.4366 34.1315 55.0649 31.6368 55.4637C26.5374 56.2832 21.2339 56.1575 16.195 55.1277C13.5965 54.5982 10.9506 54.3301 8.29774 54.3274H2.06809C1.5198 54.3274 0.993955 54.1115 0.60625 53.7273C0.218545 53.3431 0.000735204 52.822 0.000735204 52.2786C0.000735204 51.7353 0.218545 51.2142 0.60625 50.83C0.993955 50.4457 1.5198 50.2299 2.06809 50.2299H8.29774C11.2251 50.2299 14.1828 50.5331 17.0303 51.1149C21.623 52.0489 26.3484 52.1516 30.978 51.4182C33.2604 51.0521 35.3939 50.5085 37.2738 49.6098C39.1565 48.7084 41.2735 47.5228 42.6159 46.2909C43.9748 45.0425 45.4937 42.8818 46.6541 41.0407C47.0042 40.4834 46.9546 39.683 46.0973 39.0411C45.0774 38.2762 43.4869 38.2762 42.4698 39.0411L37.4889 42.7698C35.4987 44.2585 33.0509 45.8511 30.016 46.3318C29.6981 46.3817 29.3792 46.4254 29.0595 46.463C28.9015 46.4903 28.737 46.5085 28.5661 46.5176C26.7951 46.6879 25.0116 46.6879 23.2406 46.5176C22.966 46.4979 22.6982 46.424 22.4529 46.3003C22.2075 46.1767 21.9895 46.0057 21.8117 45.7974C21.6339 45.5891 21.4999 45.3478 21.4175 45.0875C21.3351 44.8272 21.306 44.5532 21.3319 44.2816C21.3577 44.01 21.4381 43.7463 21.5682 43.5059C21.6983 43.2655 21.8756 43.0532 22.0896 42.8816C22.3036 42.71 22.55 42.5825 22.8144 42.5065C23.0788 42.4306 23.3558 42.4077 23.6293 42.4393C25.1584 42.5859 26.6985 42.5832 28.2271 42.4311L28.3098 42.4229C28.567 42.2647 28.7855 42.0519 28.9497 41.7999C29.1138 41.5479 29.2195 41.2629 29.259 40.9656C29.2986 40.6682 29.271 40.3658 29.1784 40.0802C29.0857 39.7947 28.9303 39.5331 28.7232 39.3143C28.5022 39.0762 28.2467 38.8718 27.9652 38.7078C24.7098 36.782 20.3601 36.4624 15.765 37.342C11.2762 38.235 7.02104 40.0343 3.26441 42.6277C3.04287 42.7834 2.79256 42.8944 2.52777 42.9542C2.26298 43.014 1.98889 43.0215 1.72115 42.9764C1.45341 42.9312 1.19727 42.8343 0.967351 42.691C0.737429 42.5478 0.538231 42.3611 0.381129 42.1415C0.224027 41.922 0.112098 41.6739 0.0517329 41.4115C-0.00863237 41.1491 -0.0162519 40.8775 0.0293094 40.6122C0.121325 40.0763 0.424372 39.5986 0.871783 39.2842C5.10939 36.3543 9.91244 34.3241 14.9794 33.3211Z" fill="white"/>
</svg>
