<svg width="74" height="60" viewBox="0 0 74 60" fill="none" xmlns="http://www.w3.org/2000/svg">
<g id="Group">
<path id="Vector" d="M12.5 21.25C12.5 21.25 3.49975 24.75 2 37M61.5 21.25C61.5 21.25 70.5003 24.75 72 37M26.5 21.25C26.5 21.25 34.9 23.2922 37 33.5C39.1 23.2922 47.5 21.25 47.5 21.25M30 47.5C30 47.5 22.65 48.8125 19.5 58M44 47.5C44 47.5 51.35 48.8125 54.5 58" stroke="white" stroke-width="4" stroke-linecap="round"/>
<path id="Vector_2" d="M37 51C41.8325 51 45.75 47.0825 45.75 42.25C45.75 37.4175 41.8325 33.5 37 33.5C32.1675 33.5 28.25 37.4175 28.25 42.25C28.25 47.0825 32.1675 51 37 51Z" stroke="white" stroke-width="4" stroke-linecap="round" stroke-linejoin="round"/>
<path id="Vector_3" d="M54.5 23C60.299 23 65 18.299 65 12.5C65 6.70101 60.299 2 54.5 2C48.701 2 44 6.70101 44 12.5C44 18.299 48.701 23 54.5 23Z" stroke="white" stroke-width="4" stroke-linecap="round" stroke-linejoin="round"/>
<path id="Vector_4" d="M19.5 23C25.299 23 30 18.299 30 12.5C30 6.70101 25.299 2 19.5 2C13.701 2 9 6.70101 9 12.5C9 18.299 13.701 23 19.5 23Z" stroke="white" stroke-width="4" stroke-linecap="round" stroke-linejoin="round"/>
</g>
</svg>
