<svg width="56" height="56" viewBox="0 0 56 56" fill="none" xmlns="http://www.w3.org/2000/svg">
<g id="Group">
<path id="Vector" fill-rule="evenodd" clip-rule="evenodd" d="M25.463 15.2896C22.9391 14.3597 20.8424 13.5861 19.2067 13.2397C17.5735 12.8933 15.6617 12.8047 14.2318 14.2321C12.8044 15.662 12.893 17.5739 13.242 19.207C13.5858 20.8427 14.362 22.9394 15.2893 25.4633L18.6623 34.6161C19.1103 35.8351 19.5218 36.9473 19.9698 37.7677C20.4517 38.6533 21.2148 39.6457 22.5745 39.9452C23.9341 40.2447 25.0463 39.6587 25.8511 39.0596C26.6065 38.5022 27.4426 37.6635 28.362 36.7467L29.0366 36.0721L34.1027 41.1381C34.4022 41.4403 34.6913 41.7294 34.957 41.9586C35.2435 42.2086 35.6029 42.4821 36.064 42.6749C36.5453 42.8748 37.0613 42.9777 37.5825 42.9777C38.1036 42.9777 38.6197 42.8748 39.101 42.6749C39.5646 42.4821 39.9241 42.2113 40.2106 41.9586C40.4762 41.7294 40.7654 41.4377 41.0649 41.1381L41.1404 41.0652C41.44 40.7657 41.7291 40.4766 41.9583 40.2135C42.2083 39.927 42.4818 39.5649 42.6746 39.1013C42.8745 38.62 42.9774 38.104 42.9774 37.5828C42.9774 37.0616 42.8745 36.5456 42.6746 36.0643C42.4961 35.6596 42.2543 35.2859 41.9583 34.9573C41.7291 34.6916 41.4374 34.4025 41.1378 34.103L36.0744 29.0369L36.749 28.3597C37.6658 27.4429 38.5045 26.6042 39.0645 25.8514C39.6636 25.044 40.247 23.9344 39.9501 22.5748C39.648 21.2152 38.653 20.452 37.7726 19.9701C36.9495 19.5195 35.8374 19.1106 34.6184 18.6626L25.463 15.2896ZM16.9432 17.1623C16.9641 17.0087 16.9953 16.9956 16.9953 16.9956C16.9953 16.9956 17.0083 16.9644 17.162 16.9435C17.3704 16.9175 17.7481 16.9253 18.394 17.0607C19.7224 17.342 21.5508 18.0114 24.2649 19.0142L33.1363 22.2805C34.5272 22.7936 35.3581 23.1035 35.8973 23.4005L35.9806 23.4473L35.9233 23.5255C35.5587 24.0152 34.9335 24.6481 33.8865 25.6978L31.9278 27.6539C31.562 28.0201 31.3565 28.5166 31.3565 29.0343C31.3565 29.552 31.562 30.0485 31.9278 30.4148L38.3404 36.8274C38.5902 37.0711 38.8317 37.323 39.0645 37.5828L39.0124 37.6427C38.7957 37.8823 38.5716 38.1151 38.3404 38.3407C38.105 38.583 37.8618 38.8175 37.6111 39.044L37.5851 39.0648L37.5226 39.0127C37.2839 38.796 37.0519 38.5719 36.8271 38.3407L30.4171 31.9281C30.0508 31.5623 29.5543 31.3568 29.0366 31.3568C28.5189 31.3568 28.0224 31.5623 27.6561 31.9281L25.6974 33.8868C24.6478 34.9339 24.0148 35.559 23.5252 35.9236L23.447 35.9809L23.3975 35.895C23.1032 35.3584 22.7933 34.5275 22.2775 33.134L19.0139 24.2678C18.0137 21.5538 17.3469 19.7227 17.063 18.3969C16.9276 17.751 16.9172 17.3733 16.9458 17.1649" fill="white"/>
<path id="Vector_2" fill-rule="evenodd" clip-rule="evenodd" d="M28.1485 0H27.8515C21.8374 0 17.1256 1.55249e-07 13.4478 0.494884C9.6867 1.00019 6.7174 2.05767 4.38623 4.38623C2.05507 6.7174 1.00019 9.6867 0.494884 13.4504C1.55249e-07 17.1256 0 21.8374 0 27.8515V28.1485C0 34.1626 1.55249e-07 38.8744 0.494884 42.5522C1.00019 46.3133 2.05767 49.2826 4.38623 51.6138C6.7174 53.9449 9.6867 54.9998 13.4504 55.5051C17.1256 56 21.8374 56 27.8515 56H28.1485C34.1626 56 38.8744 56 42.5522 55.5051C46.3133 54.9998 49.2826 53.9423 51.6138 51.6138C53.9449 49.2826 54.9998 46.3133 55.5051 42.5496C56 38.8744 56 34.1626 56 28.1485V27.8515C56 21.8374 56 17.1256 55.5051 13.4478C54.9998 9.6867 53.9423 6.7174 51.6138 4.38623C49.2826 2.05507 46.3133 1.00019 42.5496 0.494884C38.8744 1.55249e-07 34.1626 0 28.1485 0ZM7.14977 7.14977C8.63442 5.66512 10.64 4.8134 13.9713 4.3654C17.3574 3.91219 21.8061 3.90698 28 3.90698C34.1939 3.90698 38.6426 3.91219 42.0287 4.3654C45.36 4.8134 47.3682 5.66772 48.8528 7.14977C50.3349 8.63442 51.1866 10.64 51.6346 13.9713C52.0878 17.3574 52.093 21.8061 52.093 28C52.093 34.1939 52.0878 38.6426 51.6346 42.0287C51.1866 45.36 50.3323 47.3682 48.8502 48.8528C47.3656 50.3349 45.36 51.1866 42.0287 51.6346C38.6426 52.0878 34.1939 52.093 28 52.093C21.8061 52.093 17.3574 52.0878 13.9713 51.6346C10.64 51.1866 8.63181 50.3323 7.14716 48.8502C5.66512 47.3656 4.8134 45.36 4.3654 42.0287C3.91219 38.6426 3.90698 34.1939 3.90698 28C3.90698 21.8061 3.91219 17.3574 4.3654 13.9713C4.8134 10.64 5.66772 8.63442 7.14977 7.14977Z" fill="white"/>
</g>
</svg>
