<svg width="51" height="50" viewBox="0 0 51 50" fill="none" xmlns="http://www.w3.org/2000/svg">
<path id="Vector" d="M25.4989 16.6786C20.7998 16.6786 17.0114 20.4286 17.0114 25C17.0114 29.5714 20.8362 33.3214 25.4989 33.3214C30.1615 33.3214 33.9863 29.5714 33.9863 25C33.9863 20.4286 30.1615 16.6786 25.4989 16.6786ZM50.9977 25C50.9977 21.5357 50.9977 18.1429 50.8156 14.6786C50.6335 10.6786 49.6863 7.10714 46.6993 4.21429C43.7123 1.28571 40.1061 0.357143 36.0262 0.178571C32.4928 -1.86265e-07 29.0323 0 25.4989 0C21.9654 0 18.5049 -1.86265e-07 14.9715 0.178571C10.8917 0.357143 7.24896 1.28571 4.29838 4.21429C1.31137 7.14286 0.364269 10.6786 0.182135 14.6786C-1.8999e-07 18.1429 0 21.5357 0 25C0 28.4643 -1.8999e-07 31.8571 0.182135 35.3214C0.364269 39.3214 1.31137 42.8929 4.29838 45.7857C7.28539 48.7143 10.8917 49.6429 14.9715 49.8214C18.5049 50 21.9654 50 25.4989 50C29.0323 50 32.4928 50 36.0262 49.8214C40.1061 49.6429 43.7488 48.7143 46.6993 45.7857C49.6863 42.8571 50.6335 39.3214 50.8156 35.3214C51.0341 31.8929 50.9977 28.4643 50.9977 25ZM25.4989 37.8214C18.2499 37.8214 12.4216 32.1071 12.4216 25C12.4216 17.8929 18.2499 12.1786 25.4989 12.1786C32.7478 12.1786 38.5761 17.8929 38.5761 25C38.5761 32.1071 32.7478 37.8214 25.4989 37.8214ZM39.1225 14.6429C37.4469 14.6429 36.0627 13.3214 36.0627 11.6429C36.0627 9.96429 37.4105 8.64286 39.1225 8.64286C40.8346 8.64286 42.1824 9.96429 42.1824 11.6429C42.1916 12.0341 42.1188 12.4229 41.9684 12.7854C41.818 13.1479 41.5933 13.4762 41.3082 13.75C41.0289 14.0295 40.694 14.2499 40.3243 14.3973C39.9546 14.5448 39.558 14.6162 39.159 14.6071L39.1225 14.6429Z" fill="#525252"/>
</svg>
