<svg width="118" height="112" viewBox="0 0 118 112" fill="none" xmlns="http://www.w3.org/2000/svg">
<path id="&#226;&#128;&#156;" d="M-7.53245e-06 110.891L2.72116 90.4378C9.48287 90.9307 14.5954 89.6164 18.0587 86.4951C21.522 83.3737 23.7484 79.1023 24.7379 73.681C25.7275 68.2596 25.9748 62.2633 25.4801 55.692L-2.70679e-06 55.692L2.16196e-06 -2.68649e-06L48.4864 1.55232e-06L48.4864 63.0847C48.4864 80.3344 44.2809 93.3128 35.87 102.02C27.2942 110.891 15.3375 113.848 -7.53245e-06 110.891ZM69.5136 110.891L72.2348 90.4378C78.9965 90.9307 84.109 89.6164 87.5723 86.4951C91.0356 83.3737 93.2621 79.1023 94.2516 73.681C95.2411 68.2596 95.4885 62.2633 94.9937 55.692L69.5136 55.692L69.5136 3.39058e-06L118 7.62939e-06L118 63.0847C118 80.3344 113.795 93.3128 105.384 102.02C96.8078 110.891 84.8512 113.848 69.5136 110.891Z" fill="#1A1F71" fill-opacity="0.14"/>
</svg>
