<svg width="56" height="56" viewBox="0 0 56 56" fill="none" xmlns="http://www.w3.org/2000/svg">
<g id="Group">
<path id="Vector" d="M37.1 20.1999L37.5472 20.6471C41.013 24.1129 42.7472 25.8471 42.7472 27.9999C42.7472 30.1527 41.013 31.8869 37.5472 35.3527L37.1 35.7999M31.3644 15.4419L28 27.9999L24.6356 40.5579M18.9 20.1999L18.4528 20.6471C14.987 24.1129 13.2528 25.8471 13.2528 27.9999C13.2528 30.1527 14.987 31.8869 18.4528 35.3527L18.9 35.7999" stroke="white" stroke-width="3" stroke-linecap="round"/>
<path id="Vector_2" d="M54 28C54 40.2564 54 46.3846 50.191 50.191C46.3872 54 40.2564 54 28 54C15.7436 54 9.6154 54 5.8064 50.191C2 46.3872 2 40.2564 2 28C2 15.7436 2 9.6154 5.8064 5.8064C9.618 2 15.7436 2 28 2C40.2564 2 46.3846 2 50.191 5.8064C52.7234 8.3388 53.571 11.8982 53.857 17.6" stroke="white" stroke-width="3" stroke-linecap="round"/>
</g>
</svg>
