<svg width="56" height="56" viewBox="0 0 56 56" fill="none" xmlns="http://www.w3.org/2000/svg">
<g id="Group">
<path id="Vector" d="M2 28C2 15.7436 2 9.6154 5.8064 5.8064C9.618 2 15.7436 2 28 2C40.2564 2 46.3846 2 50.191 5.8064C54 9.618 54 15.7436 54 28C54 40.2564 54 46.3846 50.191 50.191C46.3872 54 40.2564 54 28 54C15.7436 54 9.6154 54 5.8064 50.191C2 46.3872 2 40.2564 2 28Z" stroke="white" stroke-width="3"/>
<path id="Vector_2" d="M12.4 37.88L15.3718 41L22.8 33.2M12.4 19.68L15.3718 22.8L22.8 15" stroke="white" stroke-width="3" stroke-linecap="round" stroke-linejoin="round"/>
<path id="Vector_3" d="M30.6 20.2002H43.6M30.6 38.4002H43.6" stroke="white" stroke-width="3" stroke-linecap="round"/>
</g>
</svg>
