<svg width="56" height="56" viewBox="0 0 56 56" fill="none" xmlns="http://www.w3.org/2000/svg">
<g id="Group">
<path id="Vector" d="M28 54C42.3598 54 54 42.3598 54 28C54 13.6402 42.3598 2 28 2C13.6402 2 2 13.6402 2 28C2 32.16 2.9776 36.0912 4.7118 39.5778C5.1746 40.5034 5.328 41.5616 5.0602 42.5626L3.5132 48.3502C3.35998 48.923 3.36012 49.5259 3.5136 50.0986C3.66708 50.6713 3.96851 51.1936 4.38762 51.6129C4.80673 52.0323 5.32878 52.3341 5.90137 52.4879C6.47396 52.6417 7.07694 52.6423 7.6498 52.4894L13.4374 50.9398C14.442 50.686 15.5048 50.809 16.4248 51.2856C20.0205 53.0759 23.9833 54.0052 28 54Z" stroke="white" stroke-width="3"/>
<g id="Vector_2">
<path d="M28 23.4489C27.7404 23.4489 27.4834 23.3971 27.2441 23.2964C27.0059 23.1963 26.79 23.0498 26.609 22.8655L26.6064 22.868C24.347 20.5618 22.2046 20.294 20.8578 20.7958C19.537 21.2924 18.25 22.8056 18.25 25.6838C18.25 26.8616 18.835 28.276 19.9816 29.849C21.1074 31.3882 22.6258 32.8806 24.139 34.165C26.3958 36.0864 26.9236 36.4374 28 36.4374C29.0764 36.4374 29.6042 36.089 31.8636 34.1676L31.8646 34.1667C33.3749 32.8826 34.8928 31.3931 36.0184 29.8516C37.165 28.2786 37.75 26.8642 37.75 25.6864C37.75 22.8082 36.4656 21.2898 35.1396 20.7958C33.798 20.294 31.653 20.5618 29.3936 22.8706L29.3897 22.8668C29.2089 23.0505 28.9935 23.1965 28.7559 23.2964C28.5166 23.3971 28.2596 23.4489 28 23.4489Z" fill="white"/>
<path fill-rule="evenodd" clip-rule="evenodd" d="M29.3897 22.8668L29.3936 22.8628L28.002 21.5024L28 21.5004L27.9973 21.503L26.6064 22.8628L26.609 22.8655L27.9993 21.505L29.3897 22.8668Z" fill="white"/>
</g>
</g>
</svg>
