<svg width="52" height="50" viewBox="0 0 52 50" fill="none" xmlns="http://www.w3.org/2000/svg">
<path id="Vector" d="M26 0C11.648 0 0 11.2 0 25C0 38.8 11.648 50 26 50C40.352 50 52 38.8 52 25C52 11.2 40.352 0 26 0ZM38.064 17C37.674 20.95 35.984 30.55 35.126 34.975C34.762 36.85 34.034 37.475 33.358 37.55C31.85 37.675 30.706 36.6 29.25 35.675C26.962 34.225 25.662 33.325 23.452 31.925C20.878 30.3 22.542 29.4 24.024 27.95C24.414 27.575 31.07 21.75 31.2 21.225C31.2181 21.1455 31.2157 21.0629 31.193 20.9845C31.1703 20.9061 31.1281 20.8342 31.07 20.775C30.914 20.65 30.706 20.7 30.524 20.725C30.29 20.775 26.65 23.1 19.552 27.7C18.512 28.375 17.576 28.725 16.744 28.7C15.808 28.675 14.04 28.2 12.714 27.775C11.076 27.275 9.802 27 9.906 26.125C9.958 25.675 10.608 25.225 11.83 24.75C19.422 21.575 24.466 19.475 26.988 18.475C34.216 15.575 35.698 15.075 36.686 15.075C36.894 15.075 37.388 15.125 37.7 15.375C37.96 15.575 38.038 15.85 38.064 16.05C38.038 16.2 38.09 16.65 38.064 17Z" fill="#525252"/>
</svg>
