<svg width="51" height="50" viewBox="0 0 51 50" fill="none" xmlns="http://www.w3.org/2000/svg">
<path id="Vector" d="M3.57 3.5C6.75519e-07 7.03333 0 12.6833 0 24V26C0 37.3 6.75519e-07 42.95 3.57 46.5C7.174 50 12.937 50 24.48 50H26.52C38.046 50 43.809 50 47.43 46.5C51 42.9667 51 37.3167 51 26V24C51 12.7 51 7.05 47.43 3.5C43.826 6.62274e-07 38.063 0 26.52 0H24.48C12.954 0 7.191 6.62274e-07 3.57 3.5ZM8.602 15.2167H14.45C14.637 24.75 18.921 28.7833 22.321 29.6167V15.2167H27.812V23.4333C31.161 23.0833 34.697 19.3333 35.887 15.2H41.361C40.9143 17.3395 40.0226 19.3657 38.7415 21.1523C37.4604 22.9388 35.8173 24.4472 33.915 25.5833C36.0384 26.6191 37.9136 28.0845 39.4169 29.883C40.9202 31.6814 42.0173 33.772 42.636 36.0167H36.601C35.309 32.0667 32.079 29 27.812 28.5833V36.0167H27.132C15.504 36.0167 8.874 28.2167 8.602 15.2167Z" fill="#525252"/>
</svg>
