<svg width="217" height="48" viewBox="0 0 217 48" fill="none" xmlns="http://www.w3.org/2000/svg">
<g id="yumm">
<path id="Vector" d="M168.987 0L190.32 39.9413H190.586L212.118 0H216.704V46.5206H210.656V8.83891H210.39L189.39 47.3181H188.193L167.658 8.57308H167.392V46.5206H164.468V0H168.987Z" fill="white"/>
<path id="Vector_2" d="M100.777 0L122.11 39.9413H122.376L143.908 0H148.494V46.5206H142.446V8.83891H142.18L121.179 47.3181H119.983L99.4476 8.57308H99.1818V46.5206H96.2577V0H100.777Z" fill="white"/>
<path id="Vector_3" d="M45.7677 0H51.8154V30.3713C51.8154 31.2574 51.8376 32.1435 51.8819 33.0296C51.9262 33.9157 52.0813 34.8018 52.3471 35.6879C52.6129 36.5297 53.0117 37.3937 53.5433 38.2798C54.075 39.1659 54.8503 40.052 55.8694 40.9381C57.1542 42.0901 58.5055 42.954 59.9233 43.53C61.3854 44.106 63.0468 44.3939 64.9077 44.3939C67.0786 44.3939 69.161 44.0838 71.1547 43.4635C73.1484 42.8433 74.9428 41.6692 76.5378 39.9413C77.4239 38.9665 78.0885 37.9918 78.5315 37.0171C79.0189 36.0424 79.3733 35.0677 79.5949 34.0929C79.8164 33.0739 79.9493 32.0771 79.9936 31.1023C80.0379 30.0833 80.0601 29.0864 80.0601 28.1117V0H82.9842V30.3048C82.9842 32.653 82.6076 34.8683 81.8544 36.9506C81.1012 38.9887 79.9715 40.7831 78.4651 42.3337C77.003 43.8844 75.1643 45.1028 72.9491 45.9889C70.7781 46.875 68.2749 47.3181 65.4393 47.3181C60.9202 47.3181 57.3536 46.6978 54.7396 45.4573C52.1256 44.1724 50.154 42.5996 48.8248 40.7388C47.4957 38.8336 46.6539 36.7956 46.2994 34.6246C45.945 32.4093 45.7677 30.3935 45.7677 28.5769V0Z" fill="white"/>
<path id="Vector_4" d="M0 0H6.84517L20.4026 24.523H20.6684L34.8904 0H38.4792L22.1305 28.3111V46.5206H16.0828V28.9092L0 0Z" fill="white"/>
</g>
</svg>
